Coordinates
version=1
nRows=22
nColumns=24
inDegrees=yes

Units are S.I. units (second, meters, Newtons, ...)
Angles are in degrees.

endheader
time	pelvis_tilt	pelvis_list	pelvis_rotation	pelvis_tx	pelvis_ty	pelvis_tz	hip_flexion_r	hip_adduction_r	hip_rotation_r	knee_angle_r	ankle_angle_r	subtalar_angle_r	mtp_angle_r	hip_flexion_l	hip_adduction_l	hip_rotation_l	knee_angle_l	ankle_angle_l	subtalar_angle_l	mtp_angle_l	lumbar_extension	lumbar_bending	lumbar_rotation
      0.91200000	     -6.74443616	     -2.06192943	      7.53275674	     -0.32823714	      0.91244242	      0.29761307	     17.95292738	      6.82303997	     -6.04640739	    -21.87392970	      7.30096504	     -2.21345316	      4.22813669	     19.99512234	     -3.74002284	     -2.69320070	    -62.88009081	      1.87995116	     -6.90731457	      4.19544334	     -1.65340522	      5.04097757	     -4.89298969
      0.91616667	     -6.68372498	     -1.93695103	      7.32656888	     -0.32336938	      0.91358739	      0.29815544	     17.27511845	      6.83875874	     -5.82992416	    -21.33819865	      7.27147078	     -2.17035767	      4.28592054	     20.43329378	     -3.61085460	     -2.98776198	    -62.27888073	      2.23864607	     -6.88888975	      4.13394098	     -1.74254853	      4.89608769	     -4.56068559
      0.92033333	     -6.65226418	     -1.79398239	      7.08918041	     -0.31855895	      0.91464769	      0.29871645	     16.65160164	      6.82939618	     -5.57904341	    -20.84755229	      7.22047516	     -2.06837081	      4.32672920	     20.88369879	     -3.45965977	     -3.30029614	    -61.62455297	      2.56731978	     -6.93474140	      4.08677262	     -1.82848774	      4.76426121	     -4.35088085
      0.92450000	     -6.59273995	     -1.67151845	      6.85259607	     -0.31372923	      0.91570576	      0.29930449	     15.97956327	      6.84637387	     -5.33024259	    -20.30801155	      7.15350600	     -2.02220449	      4.41981100	     21.29763864	     -3.34731881	     -3.61898517	    -60.93590351	      2.85446466	     -6.99442068	      3.96718843	     -1.92605832	      4.61396860	     -3.94817989
      0.92866667	     -6.53055151	     -1.51057039	      6.58566716	     -0.30892915	      0.91674363	      0.29990400	     15.32522983	      6.81779071	     -5.05793575	    -19.82382290	      7.13246388	     -1.93326315	      4.46335885	     21.67369221	     -3.19754077	     -3.96600031	    -60.17005458	      3.08719064	     -7.10569760	      3.90602209	     -2.04178068	      4.45941310	     -3.75605819
      0.93283333	     -6.45734911	     -1.36750926	      6.32174390	     -0.30412722	      0.91774795	      0.30052289	     14.64936425	      6.80698744	     -4.78709396	    -19.30869646	      7.09194703	     -1.86054934	      4.51405423	     22.03367360	     -3.07708831	     -4.31081477	    -59.37247954	      3.27873120	     -7.25791731	      3.82590632	     -2.16523810	      4.28953125	     -3.43679761
      0.93700000	     -6.39286170	     -1.22268524	      6.04806667	     -0.29934251	      0.91869149	      0.30115511	     13.99210785	      6.78888794	     -4.50611712	    -18.81005433	      7.05166078	     -1.79199972	      4.56380682	     22.38777846	     -2.95782616	     -4.66012403	    -58.52854665	      3.42921483	     -7.44245260	      3.73999755	     -2.28067503	      4.12559845	     -3.12905748
      0.94116667	     -6.32762060	     -1.07494089	      5.75958067	     -0.29457104	      0.91959168	      0.30179657	     13.33827521	      6.76377985	     -4.21333592	    -18.31646764	      7.00708694	     -1.71545972	      4.61293730	     22.72395562	     -2.84183381	     -5.02151804	    -57.63789668	      3.54139183	     -7.66657184	      3.64783757	     -2.39687072	      3.96503573	     -2.81678821
      0.94533333	     -6.26078841	     -0.93007484	      5.46366046	     -0.28981855	      0.92044414	      0.30244932	     12.68795891	      6.73616060	     -3.91831704	    -17.82761018	      6.96639617	     -1.64060932	      4.66631904	     23.04536283	     -2.73247211	     -5.38288923	    -56.70504078	      3.61420390	     -7.92408936	      3.54094498	     -2.51508320	      3.80222839	     -2.48099121
      0.94950000	     -6.19564062	     -0.78361032	      5.15988004	     -0.28507595	      0.92124389	      0.30310202	     12.04638864	      6.70042180	     -3.62112325	    -17.35145110	      6.93041718	     -1.55592578	      4.71608673	     23.35311901	     -2.62572315	     -5.75224075	    -55.72923978	      3.64604962	     -8.21447955	      3.43330640	     -2.63131406	      3.63713600	     -2.16412050
      0.95366667	     -6.13514874	     -0.63802213	      4.83332340	     -0.28035049	      0.92198486	      0.30377472	     11.42416602	      6.65894911	     -3.31679875	    -16.89883150	      6.87531027	     -1.45302096	      4.75381433	     23.64774017	     -2.53226061	     -6.14539954	    -54.71035988	      3.64819611	     -8.51396389	      3.34386286	     -2.73963427	      3.49590482	     -1.89579323
      0.95783333	     -6.05949132	     -0.50455241	      4.54214269	     -0.27562123	      0.92269658	      0.30440652	     10.76772831	      6.62332605	     -3.03499568	    -16.40739291	      6.86837781	     -1.38286669	      4.80871728	     23.92230582	     -2.43268876	     -6.47768641	    -53.65906405	      3.60032343	     -8.88466383	      3.21420914	     -2.86454881	      3.32160076	     -1.49516906
      0.96200000	     -5.99500532	     -0.36967840	      4.22654854	     -0.27090464	      0.92333830	      0.30505017	     10.14030704	      6.57789942	     -2.74665801	    -15.94721188	      6.84521044	     -1.28455950	      4.86493028	     24.18868851	     -2.34328599	     -6.83830428	    -52.56496661	      3.53251720	     -9.24677030	      3.07722098	     -2.97354897	      3.16734893	     -1.15162880
      0.96616667	     -5.92900350	     -0.24119488	      3.91081251	     -0.26620313	      0.92392548	      0.30568215	      9.51584292	      6.53094863	     -2.46793953	    -15.49173427	      6.82540133	     -1.18164170	      4.92182523	     24.44247802	     -2.26058652	     -7.19241390	    -51.43796870	      3.42891728	     -9.63093853	      2.93506248	     -3.08683144	      3.02108859	     -0.81560990
      0.97033333	     -5.87029609	     -0.11585045	      3.57285633	     -0.26150152	      0.92444612	      0.30633655	      8.91560308	      6.48075295	     -2.18822181	    -15.06750305	      6.78322659	     -1.05629334	      4.96276301	     24.68469220	     -2.19532416	     -7.57362625	    -50.27264274	      3.30026100	     -9.98696615	      2.82655921	     -3.18784661	      2.89495422	     -0.55034238
      0.97450000	     -5.83340359	     -0.00370581	      3.25930169	     -0.25681446	      0.92487344	      0.30693602	      8.33266165	      6.43280430	     -1.92361674	    -14.62773761	      6.80496050	     -0.91119931	      5.13861313	     24.94641888	     -2.11759203	     -7.88513968	    -49.08141731	      3.14350972	    -10.38118568	      2.41001709	     -3.25898694	      2.74658014	      0.01543902
      0.97866667	     -5.75199771	      0.10272223	      2.94605311	     -0.25210246	      0.92532074	      0.30752437	      7.70109945	      6.38489566	     -1.68689407	    -14.18674553	      6.77466417	     -0.79175771	      5.17502717	     25.14053877	     -2.05992991	     -8.22388651	    -47.85366706	      2.97996206	    -10.75945997	      2.30812468	     -3.37741631	      2.63601948	      0.15674523
      0.98283333	     -5.68646246	      0.19658461	      2.66299646	     -0.24740371	      0.92568244	      0.30806454	      7.07640682	      6.34117578	     -1.46812990	    -13.72240202	      6.80640220	     -0.66186271	      5.23547069	     25.34764111	     -1.98540204	     -8.47934361	    -46.59848852	      2.77766475	    -11.19020110	      2.15503292	     -3.47819530	      2.51495021	      0.51961400
      0.98700000	     -5.62887735	      0.28948064	      2.34182849	     -0.24270855	      0.92597913	      0.30863987	      6.48902292	      6.29095824	     -1.24651219	    -13.31470864	      6.79223765	     -0.50348460	      5.28229407	     25.53987610	     -1.93943478	     -8.79860823	    -45.30996229	      2.55906124	    -11.52496032	      2.03407671	     -3.57031106	      2.41833256	      0.79448747
      0.99116667	     -5.57443099	      0.36752367	      2.04171932	     -0.23800576	      0.92620914	      0.30916766	      5.89435571	      6.24795923	     -1.04296133	    -12.88633543	      6.80675169	     -0.33587826	      5.33139622	     25.72859622	     -1.89027593	     -9.06222336	    -43.99985880	      2.33205267	    -11.87207736	      1.91190774	     -3.65010231	      2.32839779	      1.10564404
      0.99533333	     -5.51911497	      0.43808553	      1.74844767	     -0.23330482	      0.92638492	      0.30966640	      5.30089387	      6.20469737	     -0.85502181	    -12.46132358	      6.83398818	     -0.15508672	      5.38466910	     25.90410910	     -1.84318649	     -9.30743080	    -42.66544690	      2.08843112	    -12.20018568	      1.78413351	     -3.73498736	      2.24595298	      1.43020434
      0.99950000	     -5.46867222	      0.49888803	      1.46435920	     -0.22859242	      0.92649126	      0.31013280	      4.71475380	      6.16345973	     -0.68475505	    -12.04320397	      6.87042242	      0.03809186	      5.44057311	     26.07423890	     -1.79973350	     -9.53018738	    -41.31072696	      1.83832393	    -12.49145063	      1.65575751	     -3.81304525	      2.17380016	      1.74370362
